<svg width="120" height="28" viewBox="0 0 120 28" fill="none" xmlns="http://www.w3.org/2000/svg">
<path d="M11 23L4 19.2V13.2L0 11L11 5L22 11V19H20V12.1L18 13.2V19.2L11 23ZM11 14.7L17.85 11L11 7.3L4.15 11L11 14.7ZM11 20.725L16 18.025V14.25L11 17L6 14.25V18.025L11 20.725Z" fill="#608F11"/>
<path d="M35.126 6.556V22H31.364V6.556H35.126ZM42.6263 22.176C41.5556 22.176 40.6023 21.9927 39.7663 21.626C38.9303 21.2593 38.2703 20.7607 37.7863 20.13C37.3023 19.4847 37.0309 18.766 36.9723 17.974H40.6903C40.7343 18.3993 40.9323 18.744 41.2843 19.008C41.6363 19.272 42.0689 19.404 42.5823 19.404C43.0516 19.404 43.4109 19.316 43.6603 19.14C43.9243 18.9493 44.0563 18.7073 44.0563 18.414C44.0563 18.062 43.8729 17.8053 43.5063 17.644C43.1396 17.468 42.5456 17.2773 41.7243 17.072C40.8443 16.8667 40.1109 16.654 39.5243 16.434C38.9376 16.1993 38.4316 15.84 38.0063 15.356C37.5809 14.8573 37.3683 14.19 37.3683 13.354C37.3683 12.65 37.5589 12.012 37.9403 11.44C38.3363 10.8533 38.9083 10.3913 39.6563 10.054C40.4189 9.71667 41.3209 9.548 42.3623 9.548C43.9023 9.548 45.1123 9.92933 45.9923 10.692C46.8869 11.4547 47.4003 12.4667 47.5323 13.728H44.0563C43.9976 13.3027 43.8069 12.9653 43.4843 12.716C43.1763 12.4667 42.7656 12.342 42.2523 12.342C41.8123 12.342 41.4749 12.43 41.2403 12.606C41.0056 12.7673 40.8883 12.9947 40.8883 13.288C40.8883 13.64 41.0716 13.904 41.4383 14.08C41.8196 14.256 42.4063 14.432 43.1983 14.608C44.1076 14.8427 44.8483 15.0773 45.4203 15.312C45.9923 15.532 46.4909 15.8987 46.9163 16.412C47.3563 16.9107 47.5836 17.5853 47.5983 18.436C47.5983 19.1547 47.3929 19.8 46.9823 20.372C46.5863 20.9293 46.0069 21.3693 45.2443 21.692C44.4963 22.0147 43.6236 22.176 42.6263 22.176ZM57.1819 22L53.4419 16.852V22H49.6799V5.72H53.4419V14.718L57.1599 9.724H61.8019L56.6979 15.884L61.8459 22H57.1819ZM68.6475 22.176C67.4448 22.176 66.3595 21.9193 65.3915 21.406C64.4381 20.8927 63.6828 20.1593 63.1255 19.206C62.5828 18.2527 62.3115 17.138 62.3115 15.862C62.3115 14.6007 62.5901 13.4933 63.1475 12.54C63.7048 11.572 64.4675 10.8313 65.4355 10.318C66.4035 9.80467 67.4888 9.548 68.6915 9.548C69.8941 9.548 70.9795 9.80467 71.9475 10.318C72.9155 10.8313 73.6781 11.572 74.2355 12.54C74.7928 13.4933 75.0715 14.6007 75.0715 15.862C75.0715 17.1233 74.7855 18.238 74.2135 19.206C73.6561 20.1593 72.8861 20.8927 71.9035 21.406C70.9355 21.9193 69.8501 22.176 68.6475 22.176ZM68.6475 18.92C69.3661 18.92 69.9748 18.656 70.4735 18.128C70.9868 17.6 71.2435 16.8447 71.2435 15.862C71.2435 14.8793 70.9941 14.124 70.4955 13.596C70.0115 13.068 69.4101 12.804 68.6915 12.804C67.9581 12.804 67.3495 13.068 66.8655 13.596C66.3815 14.1093 66.1395 14.8647 66.1395 15.862C66.1395 16.8447 66.3741 17.6 66.8435 18.128C67.3275 18.656 67.9288 18.92 68.6475 18.92ZM80.6093 5.72V22H76.8473V5.72H80.6093ZM82.3676 15.84C82.3676 14.5787 82.6022 13.4713 83.0716 12.518C83.5556 11.5647 84.2082 10.8313 85.0296 10.318C85.8509 9.80467 86.7676 9.548 87.7796 9.548C88.6449 9.548 89.4002 9.724 90.0456 10.076C90.7056 10.428 91.2116 10.89 91.5636 11.462V9.724H95.3256V22H91.5636V20.262C91.1969 20.834 90.6836 21.296 90.0236 21.648C89.3782 22 88.6229 22.176 87.7576 22.176C86.7602 22.176 85.8509 21.9193 85.0296 21.406C84.2082 20.878 83.5556 20.1373 83.0716 19.184C82.6022 18.216 82.3676 17.1013 82.3676 15.84ZM91.5636 15.862C91.5636 14.9233 91.2996 14.1827 90.7716 13.64C90.2582 13.0973 89.6276 12.826 88.8796 12.826C88.1316 12.826 87.4936 13.0973 86.9656 13.64C86.4522 14.168 86.1956 14.9013 86.1956 15.84C86.1956 16.7787 86.4522 17.5267 86.9656 18.084C87.4936 18.6267 88.1316 18.898 88.8796 18.898C89.6276 18.898 90.2582 18.6267 90.7716 18.084C91.2996 17.5413 91.5636 16.8007 91.5636 15.862ZM101.589 11.77C102.029 11.0953 102.579 10.5673 103.239 10.186C103.899 9.79 104.633 9.592 105.439 9.592V13.574H104.405C103.467 13.574 102.763 13.7793 102.293 14.19C101.824 14.586 101.589 15.29 101.589 16.302V22H97.8272V9.724H101.589V11.77ZM112.605 22.176C111.403 22.176 110.317 21.9193 109.349 21.406C108.396 20.8927 107.641 20.1593 107.083 19.206C106.541 18.2527 106.269 17.138 106.269 15.862C106.269 14.6007 106.548 13.4933 107.105 12.54C107.663 11.572 108.425 10.8313 109.393 10.318C110.361 9.80467 111.447 9.548 112.649 9.548C113.852 9.548 114.937 9.80467 115.905 10.318C116.873 10.8313 117.636 11.572 118.193 12.54C118.751 13.4933 119.029 14.6007 119.029 15.862C119.029 17.1233 118.743 18.238 118.171 19.206C117.614 20.1593 116.844 20.8927 115.861 21.406C114.893 21.9193 113.808 22.176 112.605 22.176ZM112.605 18.92C113.324 18.92 113.933 18.656 114.431 18.128C114.945 17.6 115.201 16.8447 115.201 15.862C115.201 14.8793 114.952 14.124 114.453 13.596C113.969 13.068 113.368 12.804 112.649 12.804C111.916 12.804 111.307 13.068 110.823 13.596C110.339 14.1093 110.097 14.8647 110.097 15.862C110.097 16.8447 110.332 17.6 110.801 18.128C111.285 18.656 111.887 18.92 112.605 18.92Z" fill="#608F11"/>
</svg>
